:SAMPLES-PER-SECOND 30
:FULLY-SPECIFIED
:DEGREES
346
root  27.0326 26.5713 -77.1519 18.0068 -51.2469 11.523
RightUpLeg  -32.4494 -16.4413 -2.31628
RightLeg  84.9714 -1.36443 -9.4711
RightFoot  -14.0623 0.295381 2.77227
RightToes  -31.8564 -0.156911 -0.264659
Spine  15.3096 1.28055 -4.97951
Spine1  23.556 6.03732 -8.51006
HEad  20.1094 -11.9461 19.3723
LeftShoulder1  0 -2.42657e-020 -4.95415e-022
LeftArm  -33.8829 -27.1865 -92.2047
LeftForeArm  10.0609 -26.2 -4.96648
LeftHand  0.322628 -3.65742 -10.4686
RightShoulder  0 2.42657e-020 1.07489e-018
RightArm  -23.7327 38.5782 79.0126
RightForeArm  57.7173 19.2732 3.48979
RightHand  0.452166 25.5049 2.36828
LeftUpLeg  -53.3206 -13.9609 -15.6428
LeftLeg  70.0509 -2.37049 -5.41608
LeftFoot  -33.6737 1.206 3.98372
LeftToes  8.19923 2.37847e-007 4.89147e-008
347
root  24.6126 27.0194 -76.5722 19.2268 -47.0835 9.22372
RightUpLeg  -41.1557 -16.0989 -3.14373
RightLeg  88.6978 -1.06994 -13.2573
RightFoot  -18.5323 0.684577 4.57191
RightToes  -20.4059 -0.0837332 -0.180078
Spine  14.7841 0.687168 -4.57376
Spine1  23.5019 3.54093 -7.46818
HEad  17.7725 -12.9691 21.3722
LeftShoulder1  0 -2.42657e-020 -4.95415e-022
LeftArm  -31.1648 -24.6531 -88.3988
LeftForeArm  11.0387 -30.5589 -5.96611
LeftHand  0.403354 -3.94543 -12.061
RightShoulder  0 2.42657e-020 1.07489e-018
RightArm  -20.0618 29.4 78.0761
RightForeArm  48.9169 26.2342 4.95633
RightHand  -1.59077 24.761 -6.86952
LeftUpLeg  -46.5661 -13.207 -12.6946
LeftLeg  67.0535 -3.76522 -7.47559
LeftFoot  -35.0869 1.68066 5.31287
LeftToes  6.24274 2.37847e-007 4.89147e-008
348
root  22.1066 27.825 -75.921 22.7598 -42.3351 5.74689
RightUpLeg  -50.922 -16.8779 -1.64678
RightLeg  87.5763 -1.10991 -11.2146
RightFoot  -17.4766 0.487626 3.54937
RightToes  -22.0185 -0.0929943 -0.19285
Spine  12.4352 0.437923 -3.27123
Spine1  20.5496 1.87842 -5.86876
HEad  16.268 -13.2944 21.2781
LeftShoulder1  0 -2.42657e-020 -4.95415e-022
LeftArm  -31.0286 -16.7427 -85.6976
LeftForeArm  1.60119 -37.5438 -7.77081
LeftHand  0.24657 -1.98358 -14.5909
RightShoulder  0 2.42657e-020 1.07489e-018
RightArm  -21.9935 18.285 77.6085
RightForeArm  45.042 33.0289 6.56339
RightHand  -2.05358 25.0605 -8.85319
LeftUpLeg  -40.3006 -13.9002 -7.66635
LeftLeg  60.7324 -4.73913 -7.27494
LeftFoot  -35.3887 1.69542 5.31082
LeftToes  4.73893 2.37847e-007 4.89147e-008
349
root  19.356 28.8647 -74.866 24.3224 -39.2651 2.9801
RightUpLeg  -57.3157 -17.0906 -0.426697
RightLeg  81.6935 -0.715981 -3.81178
RightFoot  -16.6702 0.118541 1.18668
RightToes  -27.2906 -0.125716 -0.232701
Spine  10.6454 0.501817 -2.38324
Spine1  18.4348 1.39921 -4.82765
HEad  16.3922 -11.7225 19.4489
LeftShoulder1  0 -2.42657e-020 -4.95415e-022
LeftArm  -33.9631 -8.75689 -81.8669
LeftForeArm  -6.03941 -43.2464 -9.5176
LeftHand  0.291915 -1.97645 -17.2315
RightShoulder  0 2.42657e-020 1.07489e-018
RightArm  -23.9923 8.90483 78.0774
RightForeArm  43.4052 37.1729 7.67139
RightHand  -1.61175 25.04 -6.8806
LeftUpLeg  -30.3082 -14.0483 -3.5875
LeftLeg  49.9414 -5.00382 -5.21517
LeftFoot  -33.429 1.24391 4.14072
LeftToes  0.789563 2.37847e-007 4.89147e-008
350
root  16.3626 30.007 -73.6958 26.0353 -38.1715 -0.0580444
RightUpLeg  -61.6654 -15.3462 1.47476
RightLeg  71.5467 0.667803 1.45224
RightFoot  -13.1634 -0.084218 -0.352375
RightToes  -38.8071 -0.209024 -0.308285
Spine  9.09595 0.787869 -1.94865
Spine1  16.3956 1.63832 -4.07469
HEad  16.9153 -10.0578 18.6951
LeftShoulder1  0 -2.42657e-020 -4.95415e-022
LeftArm  -36.0306 -3.70322 -77.0238
LeftForeArm  -2.4739 -44.8304 -10.0755
LeftHand  0.369426 -2.40646 -17.8735
RightShoulder  0 2.42657e-020 1.07489e-018
RightArm  -24.1523 0.405098 78.8418
RightForeArm  41.9629 39.3025 8.29122
RightHand  -1.49159 25.7757 -6.14379
LeftUpLeg  -19.5815 -7.66248 0.645559
LeftLeg  37.3689 -8.09352 -5.36625
LeftFoot  -25.9185 0.992927 4.31291
LeftToes  -10.0727 2.37847e-007 4.89147e-008
351
root  13.5308 31.0342 -72.3835 26.8087 -36.1266 -0.173676
RightUpLeg  -64.7712 -16.2316 2.00164
RightLeg  59.3034 -0.582836 -0.935777
RightFoot  -9.21408 -0.0162565 0.175823
RightToes  -38.6976 -0.208164 -0.307648
Spine  7.67818 -0.181437 -1.96717
Spine1  14.2337 -0.543584 -3.77027
HEad  18.105 -8.86644 17.3599
LeftShoulder1  0 -2.42657e-020 -4.95415e-022
LeftArm  -39.8082 1.32033 -72.2541
LeftForeArm  -9.00693 -48.8862 -11.6225
LeftHand  0.341638 -1.95229 -20.2908
RightShoulder  0 2.42657e-020 1.07489e-018
RightArm  -22.5584 -7.05946 79.1527
RightForeArm  41.2428 42.1269 9.17466
RightHand  -1.32159 25.8798 -5.37864
LeftUpLeg  -12.7519 -4.31855 3.92132
LeftLeg  28.9342 -13.0107 -6.06505
LeftFoot  -12.2475 0.327629 3.05298
LeftToes  -24.9501 2.37847e-007 4.89147e-008
352
root  10.7336 31.8605 -70.9082 26.227 -32.8173 1.86313
RightUpLeg  -65.0826 -17.9936 0.413584
RightLeg  46.1654 -5.70915 -5.23826
RightFoot  -10.3413 0.0962684 1.44147
RightToes  -31.1278 -0.151764 -0.259727
Spine  6.9284 -1.23344 -2.06232
Spine1  13.0678 -2.88906 -3.55669
HEad  17.9891 -9.28809 15.705
LeftShoulder1  0 -2.42657e-020 -4.95415e-022
LeftArm  -44.2583 2.29749 -70.1793
LeftForeArm  -4.75747 -50.1687 -12.1847
LeftHand  0.284741 -1.72652 -19.1745
RightShoulder  0 2.42657e-020 1.07489e-018
RightArm  -22.3571 -14.3201 78.5346
RightForeArm  41.6061 47.742 11.2016
RightHand  -1.04271 26.3041 -4.09122
LeftUpLeg  -8.8188 -4.81024 5.40056
LeftLeg  24.2531 -14.384 -5.32927
LeftFoot  2.90549 0.0237854 -0.937877
LeftToes  -33.4068 2.37847e-007 4.89147e-008
353
root  7.82979 32.3638 -69.3648 25.7125 -30.4747 2.5419
RightUpLeg  -63.6865 -19.254 1.06353
RightLeg  34.4413 -10.2299 -6.04299
RightFoot  -11.3457 0.204344 2.43462
RightToes  -28.0495 -0.130723 -0.238184
Spine  6.60666 -1.37902 -1.85774
Spine1  12.5353 -3.32717 -2.91713
HEad  17.6026 -10.1726 13.6401
LeftShoulder1  0 -2.42657e-020 -4.95415e-022
LeftArm  -48.984 2.88983 -71.0708
LeftForeArm  -1.68234 -54.414 -14.2612
LeftHand  0.268897 -2.1579 -14.6211
RightShoulder  0 2.42657e-020 1.07489e-018
RightArm  -22.3904 -18.9314 76.7175
RightForeArm  41.4195 50.4695 12.3583
RightHand  -0.86712 27.0459 -3.23504
LeftUpLeg  -6.79288 -5.86652 7.1988
LeftLeg  24.0685 -12.8767 -4.73723
LeftFoot  16.9387 0.643977 -4.32278
LeftToes  -36.7689 2.37847e-007 4.89147e-008
354
root  4.7891 32.4042 -67.7555 23.9518 -28.496 2.3219
RightUpLeg  -61.3973 -20.8701 3.62339
RightLeg  29.2951 -11.3618 -5.39857
RightFoot  -9.62507 0.151897 2.18172
RightToes  -26.0083 -0.117422 -0.223288
Spine  6.85037 -1.46967 -1.48632
Spine1  12.978 -3.6069 -2.14832
HEad  17.8491 -10.3739 12.4473
LeftShoulder1  0 -2.42657e-020 -4.95415e-022
LeftArm  -54.4845 2.55561 -72.1994
LeftForeArm  4.26337 -60.1594 -17.9305
LeftHand  0.271721 -2.54073 -12.6109
RightShoulder  0 2.42657e-020 1.07489e-018
RightArm  -20.2511 -19.714 73.2763
RightForeArm  40.6308 51.1194 12.6557
RightHand  -0.476394 27.3037 -1.59157
LeftUpLeg  -5.10941 -7.76077 9.65967
LeftLeg  28.1567 -12.7314 -5.73193
LeftFoot  28.3615 1.80207 -7.12318
LeftToes  -38.2114 2.37847e-007 4.89147e-008
